<?xml version="1.0" standalone="no"?>
<!DOCTYPE svg PUBLIC "-//W3C//DTD SVG 1.1//EN" 
"http://www.w3.org/Graphics/SVG/1.1/DTD/svg11.dtd">
<svg width="864" height="648" viewBox="0 0 864 648" style="background-color:#ffffff" xmlns="http://www.w3.org/2000/svg" version="1.1">
<title>Embroidery export</title>
<path fill="none" style="stroke:rgb(0,0,0); stroke-width:1;stroke-linecap:round;stroke-opacity:1;" d="M 24 624 L 36 624 L 48 624 L 48 636 L 60 636 L 60 648 L 72 648 L 84 648 L 84 636 L 72 636 L 72 624 L 60 624 L 60 612 L 48 612 L 48 600 L 48 588 L 48 576 L 48 564 L 48 552 L 48 540 L 60 540 L 60 552 L 60 564 L 60 576 L 60 588 L 60 600 L 72 600 L 72 612 L 84 612 L 84 624 L 96 624 L 96 636 L 96 648 L 108 648 L 108 636 L 108 624 L 108 612 L 96 612 L 96 600 L 84 600 L 84 588 L 72 588 L 72 576 L 72 564 L 72 552 L 72 540 L 84 540 L 84 552 L 84 564 L 84 576 L 96 576 L 96 588 L 108 588 L 108 600 L 120 600 L 120 612 L 120 624 L 120 636 L 120 648 L 132 648 L 132 636 L 132 624 L 132 612 L 132 600 L 132 588 L 120 588 L 120 576 L 108 576 L 108 564 L 96 564 L 96 552 L 96 540 L 108 540 L 108 552 L 120 552 L 120 564 L 132 564 L 132 576 L 144 576 L 144 588 L 144 600 L 144 612 L 144 624 L 144 636 L 144 648 L 156 648 L 156 636 L 156 624 L 156 612 L 156 600 L 156 588 L 156 576 L 156 564 L 144 564 L 144 552 L 132 552 L 132 540 L 120 540 L 120 528 L 120 516 L 120 504 L 132 504 L 132 492 L 144 492 L 144 480 L 156 480 L 156 468 L 156 456 L 156 444 L 156 432 L 156 420 L 156 408 L 144 408 L 144 420 L 144 432 L 144 444 L 144 456 L 144 468 L 132 468 L 132 480 L 120 480 L 120 492 L 108 492 L 108 504 L 96 504 L 96 492 L 96 480 L 108 480 L 108 468 L 120 468 L 120 456 L 132 456 L 132 444 L 132 432 L 132 420 L 132 408 L 120 408 L 120 420 L 120 432 L 120 444 L 108 444 L 108 456 L 96 456 L 96 468 L 84 468 L 84 480 L 84 492 L 84 504 L 72 504 L 72 492 L 72 480 L 72 468 L 72 456 L 84 456 L 84 444 L 96 444 L 96 432 L 108 432 L 108 420 L 108 408 L 96 408 L 96 420 L 84 420 L 84 432 L 72 432 L 72 444 L 60 444 L 60 456 L 60 468 L 60 480 L 60 492 L 60 504 L 48 504 L 48 492 L 48 480 L 48 468 L 48 456 L 48 444 L 48 432 L 60 432 L 60 420 L 72 420 L 72 408 L 84 408 L 84 396 L 72 396 L 60 396 L 60 408 L 48 408 L 48 420 L 36 420 L 24 420 L 24 408 L 12 408 L 12 396 L 0 396 L 0 384 L 12 384 L 12 372 L 24 372 L 24 360 L 36 360 L 48 360 L 48 372 L 60 372 L 60 384 L 72 384 L 84 384 L 84 372 L 72 372 L 72 360 L 60 360 L 60 348 L 48 348 L 48 336 L 48 324 L 48 312 L 48 300 L 48 288 L 48 276 L 60 276 L 60 288 L 60 300 L 60 312 L 60 324 L 60 336 L 72 336 L 72 348 L 84 348 L 84 360 L 96 360 L 96 372 L 108 372 L 108 360 L 108 348 L 96 348 L 96 336 L 84 336 L 84 324 L 72 324 L 72 312 L 72 300 L 72 288 L 72 276 L 84 276 L 84 288 L 84 300 L 84 312 L 96 312 L 96 324 L 108 324 L 108 336 L 120 336 L 120 348 L 120 360 L 120 372 L 132 372 L 132 360 L 132 348 L 132 336 L 132 324 L 120 324 L 120 312 L 108 312 L 108 300 L 96 300 L 96 288 L 96 276 L 108 276 L 108 288 L 120 288 L 120 300 L 132 300 L 132 312 L 144 312 L 144 324 L 144 336 L 144 348 L 144 360 L 144 372 L 156 372 L 156 360 L 156 348 L 156 336 L 156 324 L 156 312 L 156 300 L 144 300 L 144 288 L 132 288 L 132 276 L 120 276 L 120 264 L 132 264 L 144 264 L 144 276 L 156 276 L 156 288 L 168 288 L 180 288 L 180 276 L 192 276 L 192 264 L 204 264 L 204 252 L 192 252 L 192 240 L 180 240 L 180 228 L 168 228 L 156 228 L 156 240 L 144 240 L 144 252 L 132 252 L 120 252 L 120 240 L 132 240 L 132 228 L 144 228 L 144 216 L 156 216 L 156 204 L 156 192 L 156 180 L 156 168 L 156 156 L 156 144 L 144 144 L 144 156 L 144 168 L 144 180 L 144 192 L 144 204 L 132 204 L 132 216 L 120 216 L 120 228 L 108 228 L 108 240 L 96 240 L 96 228 L 96 216 L 108 216 L 108 204 L 120 204 L 120 192 L 132 192 L 132 180 L 132 168 L 132 156 L 132 144 L 120 144 L 120 156 L 120 168 L 120 180 L 108 180 L 108 192 L 96 192 L 96 204 L 84 204 L 84 216 L 84 228 L 84 240 L 72 240 L 72 228 L 72 216 L 72 204 L 72 192 L 84 192 L 84 180 L 96 180 L 96 168 L 108 168 L 108 156 L 108 144 L 96 144 L 96 156 L 84 156 L 84 168 L 72 168 L 72 180 L 60 180 L 60 192 L 60 204 L 60 216 L 60 228 L 60 240 L 48 240 L 48 228 L 48 216 L 48 204 L 48 192 L 48 180 L 48 168 L 60 168 L 60 156 L 72 156 L 72 144 L 84 144 L 84 132 L 84 120 L 84 108 L 72 108 L 72 96 L 60 96 L 60 84 L 48 84 L 48 72 L 48 60 L 48 48 L 48 36 L 48 24 L 48 12 L 48 0 L 60 0 L 60 12 L 60 24 L 60 36 L 60 48 L 60 60 L 60 72 L 72 72 L 72 84 L 84 84 L 84 96 L 96 96 L 96 108 L 108 108 L 108 96 L 108 84 L 96 84 L 96 72 L 84 72 L 84 60 L 72 60 L 72 48 L 72 36 L 72 24 L 72 12 L 72 0 L 84 0 L 84 12 L 84 24 L 84 36 L 84 48 L 96 48 L 96 60 L 108 60 L 108 72 L 120 72 L 120 84 L 120 96 L 120 108 L 132 108 L 132 96 L 132 84 L 132 72 L 132 60 L 120 60 L 120 48 L 108 48 L 108 36 L 96 36 L 96 24 L 96 12 L 96 0 L 108 0 L 108 12 L 108 24 L 120 24 L 120 36 L 132 36 L 132 48 L 144 48 L 144 60 L 144 72 L 144 84 L 144 96 L 144 108 L 156 108 L 156 96 L 156 84 L 156 72 L 156 60 L 156 48 L 156 36 L 144 36 L 144 24 L 132 24 L 132 12 L 120 12 L 120 0 L 132 0 L 144 0 L 144 12 L 156 12 L 156 24 L 168 24 L 180 24 L 180 12 L 192 12 L 192 0 L 204 0 L 216 0 L 216 12 L 204 12 L 204 24 L 192 24 L 192 36 L 180 36 L 180 48 L 180 60 L 180 72 L 180 84 L 180 96 L 180 108 L 192 108 L 192 96 L 192 84 L 192 72 L 192 60 L 192 48 L 204 48 L 204 36 L 216 36 L 216 24 L 228 24 L 228 12 L 228 0 L 240 0 L 240 12 L 240 24 L 240 36 L 228 36 L 228 48 L 216 48 L 216 60 L 204 60 L 204 72 L 204 84 L 204 96 L 204 108 L 216 108 L 216 96 L 216 84 L 216 72 L 228 72 L 228 60 L 240 60 L 240 48 L 252 48 L 252 36 L 252 24 L 252 12 L 252 0 L 264 0 L 264 12 L 264 24 L 264 36 L 264 48 L 264 60 L 252 60 L 252 72 L 240 72 L 240 84 L 228 84 L 228 96 L 228 108 L 240 108 L 240 96 L 252 96 L 252 84 L 264 84 L 264 72 L 276 72 L 276 60 L 276 48 L 276 36 L 276 24 L 276 12 L 276 0 L 288 0 L 288 12 L 288 24 L 288 36 L 288 48 L 288 60 L 288 72 L 288 84 L 276 84 L 276 96 L 264 96 L 264 108 L 252 108 L 252 120 L 264 120 L 276 120 L 276 108 L 288 108 L 288 96 L 300 96 L 312 96 L 312 108 L 324 108 L 324 120 L 336 120 L 336 132 L 324 132 L 324 144 L 312 144 L 312 156 L 300 156 L 288 156 L 288 144 L 276 144 L 276 132 L 264 132 L 252 132 L 252 144 L 264 144 L 264 156 L 276 156 L 276 168 L 288 168 L 288 180 L 288 192 L 288 204 L 288 216 L 288 228 L 288 240 L 276 240 L 276 228 L 276 216 L 276 204 L 276 192 L 276 180 L 264 180 L 264 168 L 252 168 L 252 156 L 240 156 L 240 144 L 228 144 L 228 156 L 228 168 L 240 168 L 240 180 L 252 180 L 252 192 L 264 192 L 264 204 L 264 216 L 264 228 L 264 240 L 252 240 L 252 228 L 252 216 L 252 204 L 240 204 L 240 192 L 228 192 L 228 180 L 216 180 L 216 168 L 216 156 L 216 144 L 204 144 L 204 156 L 204 168 L 204 180 L 204 192 L 216 192 L 216 204 L 228 204 L 228 216 L 240 216 L 240 228 L 240 240 L 228 240 L 228 228 L 216 228 L 216 216 L 204 216 L 204 204 L 192 204 L 192 192 L 192 180 L 192 168 L 192 156 L 192 144 L 180 144 L 180 156 L 180 168 L 180 180 L 180 192 L 180 204 L 180 216 L 192 216 L 192 228 L 204 228 L 204 240 L 216 240 L 216 252 L 216 264 L 216 276 L 204 276 L 204 288 L 192 288 L 192 300 L 180 300 L 180 312 L 180 324 L 180 336 L 180 348 L 180 360 L 180 372 L 192 372 L 192 360 L 192 348 L 192 336 L 192 324 L 192 312 L 204 312 L 204 300 L 216 300 L 216 288 L 228 288 L 228 276 L 240 276 L 240 288 L 240 300 L 228 300 L 228 312 L 216 312 L 216 324 L 204 324 L 204 336 L 204 348 L 204 360 L 204 372 L 216 372 L 216 360 L 216 348 L 216 336 L 228 336 L 228 324 L 240 324 L 240 312 L 252 312 L 252 300 L 252 288 L 252 276 L 264 276 L 264 288 L 264 300 L 264 312 L 264 324 L 252 324 L 252 336 L 240 336 L 240 348 L 228 348 L 228 360 L 228 372 L 240 372 L 240 360 L 252 360 L 252 348 L 264 348 L 264 336 L 276 336 L 276 324 L 276 312 L 276 300 L 276 288 L 276 276 L 288 276 L 288 288 L 288 300 L 288 312 L 288 324 L 288 336 L 288 348 L 276 348 L 276 360 L 264 360 L 264 372 L 252 372 L 252 384 L 252 396 L 252 408 L 264 408 L 264 420 L 276 420 L 276 432 L 288 432 L 288 444 L 288 456 L 288 468 L 288 480 L 288 492 L 288 504 L 276 504 L 276 492 L 276 480 L 276 468 L 276 456 L 276 444 L 264 444 L 264 432 L 252 432 L 252 420 L 240 420 L 240 408 L 228 408 L 228 420 L 228 432 L 240 432 L 240 444 L 252 444 L 252 456 L 264 456 L 264 468 L 264 480 L 264 492 L 264 504 L 252 504 L 252 492 L 252 480 L 252 468 L 240 468 L 240 456 L 228 456 L 228 444 L 216 444 L 216 432 L 216 420 L 216 408 L 204 408 L 204 420 L 204 432 L 204 444 L 204 456 L 216 456 L 216 468 L 228 468 L 228 480 L 240 480 L 240 492 L 240 504 L 228 504 L 228 492 L 216 492 L 216 480 L 204 480 L 204 468 L 192 468 L 192 456 L 192 444 L 192 432 L 192 420 L 192 408 L 180 408 L 180 420 L 180 432 L 180 444 L 180 456 L 180 468 L 180 480 L 192 480 L 192 492 L 204 492 L 204 504 L 216 504 L 216 516 L 204 516 L 192 516 L 192 504 L 180 504 L 180 492 L 168 492 L 156 492 L 156 504 L 144 504 L 144 516 L 132 516 L 132 528 L 144 528 L 144 540 L 156 540 L 156 552 L 168 552 L 180 552 L 180 540 L 192 540 L 192 528 L 204 528 L 216 528 L 216 540 L 204 540 L 204 552 L 192 552 L 192 564 L 180 564 L 180 576 L 180 588 L 180 600 L 180 612 L 180 624 L 180 636 L 180 648 L 192 648 L 192 636 L 192 624 L 192 612 L 192 600 L 192 588 L 192 576 L 204 576 L 204 564 L 216 564 L 216 552 L 228 552 L 228 540 L 240 540 L 240 552 L 240 564 L 228 564 L 228 576 L 216 576 L 216 588 L 204 588 L 204 600 L 204 612 L 204 624 L 204 636 L 204 648 L 216 648 L 216 636 L 216 624 L 216 612 L 216 600 L 228 600 L 228 588 L 240 588 L 240 576 L 252 576 L 252 564 L 252 552 L 252 540 L 264 540 L 264 552 L 264 564 L 264 576 L 264 588 L 252 588 L 252 600 L 240 600 L 240 612 L 228 612 L 228 624 L 228 636 L 228 648 L 240 648 L 240 636 L 240 624 L 252 624 L 252 612 L 264 612 L 264 600 L 276 600 L 276 588 L 276 576 L 276 564 L 276 552 L 276 540 L 288 540 L 288 552 L 288 564 L 288 576 L 288 588 L 288 600 L 288 612 L 276 612 L 276 624 L 264 624 L 264 636 L 252 636 L 252 648 L 264 648 L 276 648 L 276 636 L 288 636 L 288 624 L 300 624 L 312 624 L 312 636 L 324 636 L 324 648 L 336 648 L 348 648 L 348 636 L 336 636 L 336 624 L 324 624 L 324 612 L 312 612 L 312 600 L 312 588 L 312 576 L 312 564 L 312 552 L 312 540 L 324 540 L 324 552 L 324 564 L 324 576 L 324 588 L 324 600 L 336 600 L 336 612 L 348 612 L 348 624 L 360 624 L 360 636 L 360 648 L 372 648 L 372 636 L 372 624 L 372 612 L 360 612 L 360 600 L 348 600 L 348 588 L 336 588 L 336 576 L 336 564 L 336 552 L 336 540 L 348 540 L 348 552 L 348 564 L 348 576 L 360 576 L 360 588 L 372 588 L 372 600 L 384 600 L 384 612 L 384 624 L 384 636 L 384 648 L 396 648 L 396 636 L 396 624 L 396 612 L 396 600 L 396 588 L 384 588 L 384 576 L 372 576 L 372 564 L 360 564 L 360 552 L 360 540 L 372 540 L 372 552 L 384 552 L 384 564 L 396 564 L 396 576 L 408 576 L 408 588 L 408 600 L 408 612 L 408 624 L 408 636 L 408 648 L 420 648 L 420 636 L 420 624 L 420 612 L 420 600 L 420 588 L 420 576 L 420 564 L 408 564 L 408 552 L 396 552 L 396 540 L 384 540 L 384 528 L 384 516 L 384 504 L 396 504 L 396 492 L 408 492 L 408 480 L 420 480 L 420 468 L 420 456 L 420 444 L 420 432 L 420 420 L 420 408 L 408 408 L 408 420 L 408 432 L 408 444 L 408 456 L 408 468 L 396 468 L 396 480 L 384 480 L 384 492 L 372 492 L 372 504 L 360 504 L 360 492 L 360 480 L 372 480 L 372 468 L 384 468 L 384 456 L 396 456 L 396 444 L 396 432 L 396 420 L 396 408 L 384 408 L 384 420 L 384 432 L 384 444 L 372 444 L 372 456 L 360 456 L 360 468 L 348 468 L 348 480 L 348 492 L 348 504 L 336 504 L 336 492 L 336 480 L 336 468 L 336 456 L 348 456 L 348 444 L 360 444 L 360 432 L 372 432 L 372 420 L 372 408 L 360 408 L 360 420 L 348 420 L 348 432 L 336 432 L 336 444 L 324 444 L 324 456 L 324 468 L 324 480 L 324 492 L 324 504 L 312 504 L 312 492 L 312 480 L 312 468 L 312 456 L 312 444 L 312 432 L 324 432 L 324 420 L 336 420 L 336 408 L 348 408 L 348 396 L 336 396 L 324 396 L 324 408 L 312 408 L 312 420 L 300 420 L 288 420 L 288 408 L 276 408 L 276 396 L 264 396 L 264 384 L 276 384 L 276 372 L 288 372 L 288 360 L 300 360 L 312 360 L 312 372 L 324 372 L 324 384 L 336 384 L 348 384 L 348 372 L 336 372 L 336 360 L 324 360 L 324 348 L 312 348 L 312 336 L 312 324 L 312 312 L 312 300 L 312 288 L 312 276 L 324 276 L 324 288 L 324 300 L 324 312 L 324 324 L 324 336 L 336 336 L 336 348 L 348 348 L 348 360 L 360 360 L 360 372 L 372 372 L 372 360 L 372 348 L 360 348 L 360 336 L 348 336 L 348 324 L 336 324 L 336 312 L 336 300 L 336 288 L 336 276 L 348 276 L 348 288 L 348 300 L 348 312 L 360 312 L 360 324 L 372 324 L 372 336 L 384 336 L 384 348 L 384 360 L 384 372 L 396 372 L 396 360 L 396 348 L 396 336 L 396 324 L 384 324 L 384 312 L 372 312 L 372 300 L 360 300 L 360 288 L 360 276 L 372 276 L 372 288 L 384 288 L 384 300 L 396 300 L 396 312 L 408 312 L 408 324 L 408 336 L 408 348 L 408 360 L 408 372 L 420 372 L 420 360 L 420 348 L 420 336 L 420 324 L 420 312 L 420 300 L 408 300 L 408 288 L 396 288 L 396 276 L 384 276 L 384 264 L 396 264 L 408 264 L 408 276 L 420 276 L 420 288 L 432 288 L 444 288 L 444 276 L 456 276 L 456 264 L 468 264 L 468 252 L 456 252 L 456 240 L 444 240 L 444 228 L 432 228 L 420 228 L 420 240 L 408 240 L 408 252 L 396 252 L 384 252 L 384 240 L 396 240 L 396 228 L 408 228 L 408 216 L 420 216 L 420 204 L 420 192 L 420 180 L 420 168 L 420 156 L 420 144 L 408 144 L 408 156 L 408 168 L 408 180 L 408 192 L 408 204 L 396 204 L 396 216 L 384 216 L 384 228 L 372 228 L 372 240 L 360 240 L 360 228 L 360 216 L 372 216 L 372 204 L 384 204 L 384 192 L 396 192 L 396 180 L 396 168 L 396 156 L 396 144 L 384 144 L 384 156 L 384 168 L 384 180 L 372 180 L 372 192 L 360 192 L 360 204 L 348 204 L 348 216 L 348 228 L 348 240 L 336 240 L 336 228 L 336 216 L 336 204 L 336 192 L 348 192 L 348 180 L 360 180 L 360 168 L 372 168 L 372 156 L 372 144 L 360 144 L 360 156 L 348 156 L 348 168 L 336 168 L 336 180 L 324 180 L 324 192 L 324 204 L 324 216 L 324 228 L 324 240 L 312 240 L 312 228 L 312 216 L 312 204 L 312 192 L 312 180 L 312 168 L 324 168 L 324 156 L 336 156 L 336 144 L 348 144 L 348 132 L 348 120 L 348 108 L 336 108 L 336 96 L 324 96 L 324 84 L 312 84 L 312 72 L 312 60 L 312 48 L 312 36 L 312 24 L 312 12 L 312 0 L 324 0 L 324 12 L 324 24 L 324 36 L 324 48 L 324 60 L 324 72 L 336 72 L 336 84 L 348 84 L 348 96 L 360 96 L 360 108 L 372 108 L 372 96 L 372 84 L 360 84 L 360 72 L 348 72 L 348 60 L 336 60 L 336 48 L 336 36 L 336 24 L 336 12 L 336 0 L 348 0 L 348 12 L 348 24 L 348 36 L 348 48 L 360 48 L 360 60 L 372 60 L 372 72 L 384 72 L 384 84 L 384 96 L 384 108 L 396 108 L 396 96 L 396 84 L 396 72 L 396 60 L 384 60 L 384 48 L 372 48 L 372 36 L 360 36 L 360 24 L 360 12 L 360 0 L 372 0 L 372 12 L 372 24 L 384 24 L 384 36 L 396 36 L 396 48 L 408 48 L 408 60 L 408 72 L 408 84 L 408 96 L 408 108 L 420 108 L 420 96 L 420 84 L 420 72 L 420 60 L 420 48 L 420 36 L 408 36 L 408 24 L 396 24 L 396 12 L 384 12 L 384 0 L 396 0 L 408 0 L 408 12 L 420 12 L 420 24 L 432 24 L 444 24 L 444 12 L 456 12 L 456 0 L 468 0 L 480 0 L 480 12 L 468 12 L 468 24 L 456 24 L 456 36 L 444 36 L 444 48 L 444 60 L 444 72 L 444 84 L 444 96 L 444 108 L 456 108 L 456 96 L 456 84 L 456 72 L 456 60 L 456 48 L 468 48 L 468 36 L 480 36 L 480 24 L 492 24 L 492 12 L 492 0 L 504 0 L 504 12 L 504 24 L 504 36 L 492 36 L 492 48 L 480 48 L 480 60 L 468 60 L 468 72 L 468 84 L 468 96 L 468 108 L 480 108 L 480 96 L 480 84 L 480 72 L 492 72 L 492 60 L 504 60 L 504 48 L 516 48 L 516 36 L 516 24 L 516 12 L 516 0 L 528 0 L 528 12 L 528 24 L 528 36 L 528 48 L 528 60 L 516 60 L 516 72 L 504 72 L 504 84 L 492 84 L 492 96 L 492 108 L 504 108 L 504 96 L 516 96 L 516 84 L 528 84 L 528 72 L 540 72 L 540 60 L 540 48 L 540 36 L 540 24 L 540 12 L 540 0 L 552 0 L 552 12 L 552 24 L 552 36 L 552 48 L 552 60 L 552 72 L 552 84 L 540 84 L 540 96 L 528 96 L 528 108 L 516 108 L 516 120 L 528 120 L 540 120 L 540 108 L 552 108 L 552 96 L 564 96 L 576 96 L 576 108 L 588 108 L 588 120 L 600 120 L 600 132 L 588 132 L 588 144 L 576 144 L 576 156 L 564 156 L 552 156 L 552 144 L 540 144 L 540 132 L 528 132 L 516 132 L 516 144 L 528 144 L 528 156 L 540 156 L 540 168 L 552 168 L 552 180 L 552 192 L 552 204 L 552 216 L 552 228 L 552 240 L 540 240 L 540 228 L 540 216 L 540 204 L 540 192 L 540 180 L 528 180 L 528 168 L 516 168 L 516 156 L 504 156 L 504 144 L 492 144 L 492 156 L 492 168 L 504 168 L 504 180 L 516 180 L 516 192 L 528 192 L 528 204 L 528 216 L 528 228 L 528 240 L 516 240 L 516 228 L 516 216 L 516 204 L 504 204 L 504 192 L 492 192 L 492 180 L 480 180 L 480 168 L 480 156 L 480 144 L 468 144 L 468 156 L 468 168 L 468 180 L 468 192 L 480 192 L 480 204 L 492 204 L 492 216 L 504 216 L 504 228 L 504 240 L 492 240 L 492 228 L 480 228 L 480 216 L 468 216 L 468 204 L 456 204 L 456 192 L 456 180 L 456 168 L 456 156 L 456 144 L 444 144 L 444 156 L 444 168 L 444 180 L 444 192 L 444 204 L 444 216 L 456 216 L 456 228 L 468 228 L 468 240 L 480 240 L 480 252 L 480 264 L 480 276 L 468 276 L 468 288 L 456 288 L 456 300 L 444 300 L 444 312 L 444 324 L 444 336 L 444 348 L 444 360 L 444 372 L 456 372 L 456 360 L 456 348 L 456 336 L 456 324 L 456 312 L 468 312 L 468 300 L 480 300 L 480 288 L 492 288 L 492 276 L 504 276 L 504 288 L 504 300 L 492 300 L 492 312 L 480 312 L 480 324 L 468 324 L 468 336 L 468 348 L 468 360 L 468 372 L 480 372 L 480 360 L 480 348 L 480 336 L 492 336 L 492 324 L 504 324 L 504 312 L 516 312 L 516 300 L 516 288 L 516 276 L 528 276 L 528 288 L 528 300 L 528 312 L 528 324 L 516 324 L 516 336 L 504 336 L 504 348 L 492 348 L 492 360 L 492 372 L 504 372 L 504 360 L 516 360 L 516 348 L 528 348 L 528 336 L 540 336 L 540 324 L 540 312 L 540 300 L 540 288 L 540 276 L 552 276 L 552 288 L 552 300 L 552 312 L 552 324 L 552 336 L 552 348 L 540 348 L 540 360 L 528 360 L 528 372 L 516 372 L 516 384 L 516 396 L 516 408 L 528 408 L 528 420 L 540 420 L 540 432 L 552 432 L 552 444 L 552 456 L 552 468 L 552 480 L 552 492 L 552 504 L 540 504 L 540 492 L 540 480 L 540 468 L 540 456 L 540 444 L 528 444 L 528 432 L 516 432 L 516 420 L 504 420 L 504 408 L 492 408 L 492 420 L 492 432 L 504 432 L 504 444 L 516 444 L 516 456 L 528 456 L 528 468 L 528 480 L 528 492 L 528 504 L 516 504 L 516 492 L 516 480 L 516 468 L 504 468 L 504 456 L 492 456 L 492 444 L 480 444 L 480 432 L 480 420 L 480 408 L 468 408 L 468 420 L 468 432 L 468 444 L 468 456 L 480 456 L 480 468 L 492 468 L 492 480 L 504 480 L 504 492 L 504 504 L 492 504 L 492 492 L 480 492 L 480 480 L 468 480 L 468 468 L 456 468 L 456 456 L 456 444 L 456 432 L 456 420 L 456 408 L 444 408 L 444 420 L 444 432 L 444 444 L 444 456 L 444 468 L 444 480 L 456 480 L 456 492 L 468 492 L 468 504 L 480 504 L 480 516 L 468 516 L 456 516 L 456 504 L 444 504 L 444 492 L 432 492 L 420 492 L 420 504 L 408 504 L 408 516 L 396 516 L 396 528 L 408 528 L 408 540 L 420 540 L 420 552 L 432 552 L 444 552 L 444 540 L 456 540 L 456 528 L 468 528 L 480 528 L 480 540 L 468 540 L 468 552 L 456 552 L 456 564 L 444 564 L 444 576 L 444 588 L 444 600 L 444 612 L 444 624 L 444 636 L 444 648 L 456 648 L 456 636 L 456 624 L 456 612 L 456 600 L 456 588 L 456 576 L 468 576 L 468 564 L 480 564 L 480 552 L 492 552 L 492 540 L 504 540 L 504 552 L 504 564 L 492 564 L 492 576 L 480 576 L 480 588 L 468 588 L 468 600 L 468 612 L 468 624 L 468 636 L 468 648 L 480 648 L 480 636 L 480 624 L 480 612 L 480 600 L 492 600 L 492 588 L 504 588 L 504 576 L 516 576 L 516 564 L 516 552 L 516 540 L 528 540 L 528 552 L 528 564 L 528 576 L 528 588 L 516 588 L 516 600 L 504 600 L 504 612 L 492 612 L 492 624 L 492 636 L 492 648 L 504 648 L 504 636 L 504 624 L 516 624 L 516 612 L 528 612 L 528 600 L 540 600 L 540 588 L 540 576 L 540 564 L 540 552 L 540 540 L 552 540 L 552 552 L 552 564 L 552 576 L 552 588 L 552 600 L 552 612 L 540 612 L 540 624 L 528 624 L 528 636 L 516 636 L 516 648 L 528 648 L 540 648 L 540 636 L 552 636 L 552 624 L 564 624 L 576 624 L 576 636 L 588 636 L 588 648 L 600 648 L 612 648 L 612 636 L 600 636 L 600 624 L 588 624 L 588 612 L 576 612 L 576 600 L 576 588 L 576 576 L 576 564 L 576 552 L 576 540 L 588 540 L 588 552 L 588 564 L 588 576 L 588 588 L 588 600 L 600 600 L 600 612 L 612 612 L 612 624 L 624 624 L 624 636 L 624 648 L 636 648 L 636 636 L 636 624 L 636 612 L 624 612 L 624 600 L 612 600 L 612 588 L 600 588 L 600 576 L 600 564 L 600 552 L 600 540 L 612 540 L 612 552 L 612 564 L 612 576 L 624 576 L 624 588 L 636 588 L 636 600 L 648 600 L 648 612 L 648 624 L 648 636 L 648 648 L 660 648 L 660 636 L 660 624 L 660 612 L 660 600 L 660 588 L 648 588 L 648 576 L 636 576 L 636 564 L 624 564 L 624 552 L 624 540 L 636 540 L 636 552 L 648 552 L 648 564 L 660 564 L 660 576 L 672 576 L 672 588 L 672 600 L 672 612 L 672 624 L 672 636 L 672 648 L 684 648 L 684 636 L 684 624 L 684 612 L 684 600 L 684 588 L 684 576 L 684 564 L 672 564 L 672 552 L 660 552 L 660 540 L 648 540 L 648 528 L 648 516 L 648 504 L 660 504 L 660 492 L 672 492 L 672 480 L 684 480 L 684 468 L 684 456 L 684 444 L 684 432 L 684 420 L 684 408 L 672 408 L 672 420 L 672 432 L 672 444 L 672 456 L 672 468 L 660 468 L 660 480 L 648 480 L 648 492 L 636 492 L 636 504 L 624 504 L 624 492 L 624 480 L 636 480 L 636 468 L 648 468 L 648 456 L 660 456 L 660 444 L 660 432 L 660 420 L 660 408 L 648 408 L 648 420 L 648 432 L 648 444 L 636 444 L 636 456 L 624 456 L 624 468 L 612 468 L 612 480 L 612 492 L 612 504 L 600 504 L 600 492 L 600 480 L 600 468 L 600 456 L 612 456 L 612 444 L 624 444 L 624 432 L 636 432 L 636 420 L 636 408 L 624 408 L 624 420 L 612 420 L 612 432 L 600 432 L 600 444 L 588 444 L 588 456 L 588 468 L 588 480 L 588 492 L 588 504 L 576 504 L 576 492 L 576 480 L 576 468 L 576 456 L 576 444 L 576 432 L 588 432 L 588 420 L 600 420 L 600 408 L 612 408 L 612 396 L 600 396 L 588 396 L 588 408 L 576 408 L 576 420 L 564 420 L 552 420 L 552 408 L 540 408 L 540 396 L 528 396 L 528 384 L 540 384 L 540 372 L 552 372 L 552 360 L 564 360 L 576 360 L 576 372 L 588 372 L 588 384 L 600 384 L 612 384 L 612 372 L 600 372 L 600 360 L 588 360 L 588 348 L 576 348 L 576 336 L 576 324 L 576 312 L 576 300 L 576 288 L 576 276 L 588 276 L 588 288 L 588 300 L 588 312 L 588 324 L 588 336 L 600 336 L 600 348 L 612 348 L 612 360 L 624 360 L 624 372 L 636 372 L 636 360 L 636 348 L 624 348 L 624 336 L 612 336 L 612 324 L 600 324 L 600 312 L 600 300 L 600 288 L 600 276 L 612 276 L 612 288 L 612 300 L 612 312 L 624 312 L 624 324 L 636 324 L 636 336 L 648 336 L 648 348 L 648 360 L 648 372 L 660 372 L 660 360 L 660 348 L 660 336 L 660 324 L 648 324 L 648 312 L 636 312 L 636 300 L 624 300 L 624 288 L 624 276 L 636 276 L 636 288 L 648 288 L 648 300 L 660 300 L 660 312 L 672 312 L 672 324 L 672 336 L 672 348 L 672 360 L 672 372 L 684 372 L 684 360 L 684 348 L 684 336 L 684 324 L 684 312 L 684 300 L 672 300 L 672 288 L 660 288 L 660 276 L 648 276 L 648 264 L 660 264 L 672 264 L 672 276 L 684 276 L 684 288 L 696 288 L 708 288 L 708 276 L 720 276 L 720 264 L 732 264 L 732 252 L 720 252 L 720 240 L 708 240 L 708 228 L 696 228 L 684 228 L 684 240 L 672 240 L 672 252 L 660 252 L 648 252 L 648 240 L 660 240 L 660 228 L 672 228 L 672 216 L 684 216 L 684 204 L 684 192 L 684 180 L 684 168 L 684 156 L 684 144 L 672 144 L 672 156 L 672 168 L 672 180 L 672 192 L 672 204 L 660 204 L 660 216 L 648 216 L 648 228 L 636 228 L 636 240 L 624 240 L 624 228 L 624 216 L 636 216 L 636 204 L 648 204 L 648 192 L 660 192 L 660 180 L 660 168 L 660 156 L 660 144 L 648 144 L 648 156 L 648 168 L 648 180 L 636 180 L 636 192 L 624 192 L 624 204 L 612 204 L 612 216 L 612 228 L 612 240 L 600 240 L 600 228 L 600 216 L 600 204 L 600 192 L 612 192 L 612 180 L 624 180 L 624 168 L 636 168 L 636 156 L 636 144 L 624 144 L 624 156 L 612 156 L 612 168 L 600 168 L 600 180 L 588 180 L 588 192 L 588 204 L 588 216 L 588 228 L 588 240 L 576 240 L 576 228 L 576 216 L 576 204 L 576 192 L 576 180 L 576 168 L 588 168 L 588 156 L 600 156 L 600 144 L 612 144 L 612 132 L 612 120 L 612 108 L 600 108 L 600 96 L 588 96 L 588 84 L 576 84 L 576 72 L 576 60 L 576 48 L 576 36 L 576 24 L 576 12 L 576 0 L 588 0 L 588 12 L 588 24 L 588 36 L 588 48 L 588 60 L 588 72 L 600 72 L 600 84 L 612 84 L 612 96 L 624 96 L 624 108 L 636 108 L 636 96 L 636 84 L 624 84 L 624 72 L 612 72 L 612 60 L 600 60 L 600 48 L 600 36 L 600 24 L 600 12 L 600 0 L 612 0 L 612 12 L 612 24 L 612 36 L 612 48 L 624 48 L 624 60 L 636 60 L 636 72 L 648 72 L 648 84 L 648 96 L 648 108 L 660 108 L 660 96 L 660 84 L 660 72 L 660 60 L 648 60 L 648 48 L 636 48 L 636 36 L 624 36 L 624 24 L 624 12 L 624 0 L 636 0 L 636 12 L 636 24 L 648 24 L 648 36 L 660 36 L 660 48 L 672 48 L 672 60 L 672 72 L 672 84 L 672 96 L 672 108 L 684 108 L 684 96 L 684 84 L 684 72 L 684 60 L 684 48 L 684 36 L 672 36 L 672 24 L 660 24 L 660 12 L 648 12 L 648 0 L 660 0 L 672 0 L 672 12 L 684 12 L 684 24 L 696 24 L 708 24 L 708 12 L 720 12 L 720 0 L 732 0 L 744 0 L 744 12 L 732 12 L 732 24 L 720 24 L 720 36 L 708 36 L 708 48 L 708 60 L 708 72 L 708 84 L 708 96 L 708 108 L 720 108 L 720 96 L 720 84 L 720 72 L 720 60 L 720 48 L 732 48 L 732 36 L 744 36 L 744 24 L 756 24 L 756 12 L 756 0 L 768 0 L 768 12 L 768 24 L 768 36 L 756 36 L 756 48 L 744 48 L 744 60 L 732 60 L 732 72 L 732 84 L 732 96 L 732 108 L 744 108 L 744 96 L 744 84 L 744 72 L 756 72 L 756 60 L 768 60 L 768 48 L 780 48 L 780 36 L 780 24 L 780 12 L 780 0 L 792 0 L 792 12 L 792 24 L 792 36 L 792 48 L 792 60 L 780 60 L 780 72 L 768 72 L 768 84 L 756 84 L 756 96 L 756 108 L 768 108 L 768 96 L 780 96 L 780 84 L 792 84 L 792 72 L 804 72 L 804 60 L 804 48 L 804 36 L 804 24 L 804 12 L 804 0 L 816 0 L 816 12 L 816 24 L 816 36 L 816 48 L 816 60 L 816 72 L 816 84 L 804 84 L 804 96 L 792 96 L 792 108 L 780 108 L 780 120 L 792 120 L 804 120 L 804 108 L 816 108 L 816 96 L 828 96 L 840 96 L 840 108 L 852 108 L 852 120 L 864 120 L 864 132 L 852 132 L 852 144 L 840 144 L 840 156 L 828 156 L 816 156 L 816 144 L 804 144 L 804 132 L 792 132 L 780 132 L 780 144 L 792 144 L 792 156 L 804 156 L 804 168 L 816 168 L 816 180 L 816 192 L 816 204 L 816 216 L 816 228 L 816 240 L 804 240 L 804 228 L 804 216 L 804 204 L 804 192 L 804 180 L 792 180 L 792 168 L 780 168 L 780 156 L 768 156 L 768 144 L 756 144 L 756 156 L 756 168 L 768 168 L 768 180 L 780 180 L 780 192 L 792 192 L 792 204 L 792 216 L 792 228 L 792 240 L 780 240 L 780 228 L 780 216 L 780 204 L 768 204 L 768 192 L 756 192 L 756 180 L 744 180 L 744 168 L 744 156 L 744 144 L 732 144 L 732 156 L 732 168 L 732 180 L 732 192 L 744 192 L 744 204 L 756 204 L 756 216 L 768 216 L 768 228 L 768 240 L 756 240 L 756 228 L 744 228 L 744 216 L 732 216 L 732 204 L 720 204 L 720 192 L 720 180 L 720 168 L 720 156 L 720 144 L 708 144 L 708 156 L 708 168 L 708 180 L 708 192 L 708 204 L 708 216 L 720 216 L 720 228 L 732 228 L 732 240 L 744 240 L 744 252 L 744 264 L 744 276 L 732 276 L 732 288 L 720 288 L 720 300 L 708 300 L 708 312 L 708 324 L 708 336 L 708 348 L 708 360 L 708 372 L 720 372 L 720 360 L 720 348 L 720 336 L 720 324 L 720 312 L 732 312 L 732 300 L 744 300 L 744 288 L 756 288 L 756 276 L 768 276 L 768 288 L 768 300 L 756 300 L 756 312 L 744 312 L 744 324 L 732 324 L 732 336 L 732 348 L 732 360 L 732 372 L 744 372 L 744 360 L 744 348 L 744 336 L 756 336 L 756 324 L 768 324 L 768 312 L 780 312 L 780 300 L 780 288 L 780 276 L 792 276 L 792 288 L 792 300 L 792 312 L 792 324 L 780 324 L 780 336 L 768 336 L 768 348 L 756 348 L 756 360 L 756 372 L 768 372 L 768 360 L 780 360 L 780 348 L 792 348 L 792 336 L 804 336 L 804 324 L 804 312 L 804 300 L 804 288 L 804 276 L 816 276 L 816 288 L 816 300 L 816 312 L 816 324 L 816 336 L 816 348 L 804 348 L 804 360 L 792 360 L 792 372 L 780 372 L 780 384 L 780 396 L 780 408 L 792 408 L 792 420 L 804 420 L 804 432 L 816 432 L 816 444 L 816 456 L 816 468 L 816 480 L 816 492 L 816 504 L 804 504 L 804 492 L 804 480 L 804 468 L 804 456 L 804 444 L 792 444 L 792 432 L 780 432 L 780 420 L 768 420 L 768 408 L 756 408 L 756 420 L 756 432 L 768 432 L 768 444 L 780 444 L 780 456 L 792 456 L 792 468 L 792 480 L 792 492 L 792 504 L 780 504 L 780 492 L 780 480 L 780 468 L 768 468 L 768 456 L 756 456 L 756 444 L 744 444 L 744 432 L 744 420 L 744 408 L 732 408 L 732 420 L 732 432 L 732 444 L 732 456 L 744 456 L 744 468 L 756 468 L 756 480 L 768 480 L 768 492 L 768 504 L 756 504 L 756 492 L 744 492 L 744 480 L 732 480 L 732 468 L 720 468 L 720 456 L 720 444 L 720 432 L 720 420 L 720 408 L 708 408 L 708 420 L 708 432 L 708 444 L 708 456 L 708 468 L 708 480 L 720 480 L 720 492 L 732 492 L 732 504 L 744 504 L 744 516 L 732 516 L 720 516 L 720 504 L 708 504 L 708 492 L 696 492 L 684 492 L 684 504 L 672 504 L 672 516 L 660 516 L 660 528 L 672 528 L 672 540 L 684 540 L 684 552 L 696 552 L 708 552 L 708 540 L 720 540 L 720 528 L 732 528 L 744 528 L 744 540 L 732 540 L 732 552 L 720 552 L 720 564 L 708 564 L 708 576 L 708 588 L 708 600 L 708 612 L 708 624 L 708 636 L 708 648 L 720 648 L 720 636 L 720 624 L 720 612 L 720 600 L 720 588 L 720 576 L 732 576 L 732 564 L 744 564 L 744 552 L 756 552 L 756 540 L 768 540 L 768 552 L 768 564 L 756 564 L 756 576 L 744 576 L 744 588 L 732 588 L 732 600 L 732 612 L 732 624 L 732 636 L 732 648 L 744 648 L 744 636 L 744 624 L 744 612 L 744 600 L 756 600 L 756 588 L 768 588 L 768 576 L 780 576 L 780 564 L 780 552 L 780 540 L 792 540 L 792 552 L 792 564 L 792 576 L 792 588 L 780 588 L 780 600 L 768 600 L 768 612 L 756 612 L 756 624 L 756 636 L 756 648 L 768 648 L 768 636 L 768 624 L 780 624 L 780 612 L 792 612 L 792 600 L 804 600 L 804 588 L 804 576 L 804 564 L 804 552 L 804 540 L 816 540 L 816 552 L 816 564 L 816 576 L 816 588 L 816 600 L 816 612 L 804 612 L 804 624 L 792 624 L 792 636 L 780 636 L 780 648 L 792 648 L 804 648 L 804 636 L 816 636 L 816 624" />
</svg>
